<svg version="1.1" xmlns="http://www.w3.org/2000/svg" xmlns:xlink="http://www.w3.org/1999/xlink" width="100.25717" height="100.32206" viewBox="0,0,100.25717,100.32206"><g transform="translate(-189.84694,-129.85987)"><g data-paper-data="{&quot;isPaintingLayer&quot;:true}" fill="#35cbfd" fill-rule="nonzero" stroke="none" stroke-width="0" stroke-linecap="butt" stroke-linejoin="miter" stroke-miterlimit="10" stroke-dasharray="" stroke-dashoffset="0" style="mix-blend-mode: normal"><path d="M230.32805,172.87809c0,0 -3.17623,2.79569 -4.01058,8.33744c-1.27702,8.48197 -2.34462,37.96924 -2.34462,37.96924l-14.27896,7.75877c0,0 1.02374,-33.47722 4.82866,-43.27116c2.81053,-7.23438 15.8055,-10.79429 15.8055,-10.79429z"/><path d="M230.20205,172.66229c0,0 -3.17623,2.79569 -4.01058,8.33744c-1.27702,8.48197 -1.6918,24.91348 -1.6918,24.91348c0,0 -3.67556,6.00834 -6.21073,7.58198c-2.09585,1.30094 -7.93468,1.19843 -7.93468,1.19843c0,0 0.07474,-6.75135 0.81255,-14.40777c0.57709,-5.98858 1.55983,-12.53087 3.22976,-16.82928c2.81053,-7.23438 15.8055,-10.79429 15.8055,-10.79429z"/><path d="M230.35673,172.62984c0,0 -2.05948,3.42291 -2.89311,5.03413c-0.81939,1.58371 -1.35958,4.40375 -1.35958,4.40375l-10.67972,1.36469c0,0 0.68748,-1.89386 1.88892,-3.6204c0.81808,-1.17563 1.99881,-2.1822 2.8773,-2.81773c2.69398,-1.94891 10.1662,-4.36445 10.1662,-4.36445z"/><path d="M212.08293,225.12547l-2.55714,1.66675c0,0 1.35065,-30.69706 3.73622,-40.64057c1.55096,-6.46467 4.55739,-7.20308 4.55739,-7.20308c0,0 -1.67508,1.56166 -2.94373,7.28671c-1.84749,8.3372 -2.79275,38.89019 -2.79275,38.89019z"/><path d="M209.51885,226.90202l-6.0137,3.27991c0,0 4.39332,-39.83845 7.48761,-45.9101c4.60475,-9.03553 19.34359,-11.71594 19.34359,-11.71594c0,0 -14.1831,3.77329 -16.68815,12.61983c-2.68814,9.49313 -4.12936,41.7263 -4.12936,41.7263z"/><path d="M232.80027,189.57606c0,0 2.79569,3.17623 8.33744,4.01058c8.48197,1.27702 37.96924,2.34462 37.96924,2.34462l7.75877,14.27896c0,0 -33.47722,-1.02374 -43.27116,-4.82866c-7.23438,-2.81053 -10.79429,-15.8055 -10.79429,-15.8055z"/><path d="M232.58447,189.70207c0,0 2.79569,3.17623 8.33744,4.01058c8.48197,1.27702 24.91348,1.6918 24.91348,1.6918c0,0 6.00834,3.67556 7.58198,6.21072c1.30094,2.09585 1.19843,7.93468 1.19843,7.93468c0,0 -6.75135,-0.07474 -14.40777,-0.81255c-5.98858,-0.57709 -12.53087,-1.55983 -16.82928,-3.22975c-7.23438,-2.81053 -10.79429,-15.8055 -10.79429,-15.8055z"/><path d="M285.04765,207.82119l1.66675,2.55714c0,0 -30.69706,-1.35065 -40.64057,-3.73622c-6.46467,-1.55096 -7.20308,-4.5574 -7.20308,-4.5574c0,0 1.56166,1.67508 7.2867,2.94372c8.3372,1.84749 38.8902,2.79275 38.8902,2.79275z"/><path d="M286.8242,210.38527l3.27991,6.0137c0,0 -39.83845,-4.39332 -45.9101,-7.48761c-9.03553,-4.60475 -11.71594,-19.34359 -11.71594,-19.34359c0,0 3.7733,14.18311 12.61983,16.68815c9.49313,2.68814 41.72631,4.12935 41.72631,4.12935z"/><path d="M247.15078,170.48736c0,0 -2.79569,-3.17623 -8.33744,-4.01058c-8.48197,-1.27702 -37.96924,-2.34462 -37.96924,-2.34462l-7.75877,-14.27896c0,0 33.47722,1.02374 43.27116,4.82866c7.23438,2.81053 10.79428,15.80549 10.79428,15.80549z" data-paper-data="{&quot;index&quot;:null}"/><path d="M247.36658,170.36136c0,0 -2.79569,-3.17623 -8.33744,-4.01058c-8.48197,-1.27702 -24.91348,-1.6918 -24.91348,-1.6918c0,0 -6.00834,-3.67556 -7.58198,-6.21072c-1.30095,-2.09586 -1.19843,-7.93469 -1.19843,-7.93469c0,0 6.75135,0.07474 14.40777,0.81255c5.98858,0.57709 12.53087,1.55983 16.82928,3.22975c7.23438,2.81053 10.79428,15.80549 10.79428,15.80549z" data-paper-data="{&quot;index&quot;:null}"/><path d="M194.9034,152.24224l-1.66675,-2.55714c0,0 30.69707,1.35065 40.64057,3.73622c6.46467,1.55096 7.20308,4.5574 7.20308,4.5574c0,0 -1.56166,-1.67508 -7.2867,-2.94372c-8.33719,-1.84749 -38.8902,-2.79275 -38.8902,-2.79275z" data-paper-data="{&quot;index&quot;:null}"/><path d="M193.12685,149.67816l-3.27991,-6.0137c0,0 39.83846,4.39333 45.9101,7.48761c9.03553,4.60475 11.71594,19.3436 11.71594,19.3436c0,0 -3.77329,-14.1831 -12.61983,-16.68815c-9.49313,-2.68814 -41.72631,-4.12935 -41.72631,-4.12935z" data-paper-data="{&quot;index&quot;:null}"/><path d="M249.72612,187.16371c0,0 3.17623,-2.79569 4.01058,-8.33744c1.27702,-8.48197 2.34462,-37.96924 2.34462,-37.96924l14.27896,-7.75877c0,0 -1.02374,33.47722 -4.82866,43.27116c-2.81053,7.23438 -15.8055,10.79429 -15.8055,10.79429z" data-paper-data="{&quot;index&quot;:null}"/><path d="M249.85212,187.37951c0,0 3.17623,-2.79569 4.01058,-8.33744c1.27702,-8.48197 1.6918,-24.91348 1.6918,-24.91348c0,0 3.67556,-6.00834 6.21073,-7.58198c2.09585,-1.30094 7.93468,-1.19843 7.93468,-1.19843c0,0 -0.07474,6.75135 -0.81255,14.40777c-0.57709,5.98858 -1.55983,12.53087 -3.22975,16.82928c-2.81053,7.23438 -15.8055,10.79429 -15.8055,10.79429z" data-paper-data="{&quot;index&quot;:null}"/><path d="M249.69744,187.41195c0,0 2.05948,-3.42291 2.89311,-5.03413c0.8194,-1.5837 1.35958,-4.40375 1.35958,-4.40375l10.67972,-1.36469c0,0 -0.68748,1.89386 -1.88892,3.6204c-0.81808,1.17563 -1.99881,2.1822 -2.8773,2.81773c-2.69398,1.94891 -10.1662,4.36445 -10.1662,4.36445z" data-paper-data="{&quot;index&quot;:null}"/><path d="M267.97125,134.91634l2.55714,-1.66675c0,0 -1.35065,30.69707 -3.73622,40.64057c-1.55096,6.46467 -4.55739,7.20308 -4.55739,7.20308c0,0 1.67508,-1.56166 2.94373,-7.28671c1.84749,-8.3372 2.79275,-38.89019 2.79275,-38.89019z" data-paper-data="{&quot;index&quot;:null}"/><path d="M270.53533,133.13978l6.0137,-3.27991c0,0 -4.39332,39.83845 -7.48761,45.9101c-4.60475,9.03553 -19.34359,11.71594 -19.34359,11.71594c0,0 14.1831,-3.77329 16.68815,-12.61983c2.68814,-9.49313 4.12935,-41.72631 4.12935,-41.72631z" data-paper-data="{&quot;index&quot;:null}"/></g></g></svg>