<svg version="1.1" xmlns="http://www.w3.org/2000/svg" xmlns:xlink="http://www.w3.org/1999/xlink" width="440.57238" height="100.32206" viewBox="0,0,440.57238,100.32206"><defs><linearGradient x1="62.53945" y1="174.25524" x2="37.35861" y2="212.80282" gradientUnits="userSpaceOnUse" id="color-1"><stop offset="0" stop-color="#7232e3"/><stop offset="1" stop-color="#7130e1"/></linearGradient><linearGradient x1="48.45555" y1="185.4786" x2="57.8678" y2="171.07004" gradientUnits="userSpaceOnUse" id="color-2"><stop offset="0" stop-color="#5322d9"/><stop offset="1" stop-color="#462ab4"/></linearGradient><linearGradient x1="37.07202" y1="147.63015" x2="75.6196" y2="172.81099" gradientUnits="userSpaceOnUse" id="color-3"><stop offset="0" stop-color="#8021c2"/><stop offset="1" stop-color="#6926ff"/></linearGradient><linearGradient x1="77.24847" y1="185.74476" x2="102.42931" y2="147.19718" gradientUnits="userSpaceOnUse" id="color-4"><stop offset="0" stop-color="#7232e3"/><stop offset="1" stop-color="#7130e1"/></linearGradient><linearGradient x1="91.33237" y1="174.52139" x2="81.92011" y2="188.92996" gradientUnits="userSpaceOnUse" id="color-5"><stop offset="0" stop-color="#5322d9"/><stop offset="1" stop-color="#462ab4"/></linearGradient></defs><g transform="translate(-19.71381,-129.83897)"><g data-paper-data="{&quot;isPaintingLayer&quot;:true}" fill-rule="nonzero" stroke-width="0" stroke-linejoin="miter" stroke-miterlimit="10" stroke-dasharray="" stroke-dashoffset="0" style="mix-blend-mode: normal"><g><g><g stroke="none" stroke-linecap="butt"><path d="M60.19492,172.85719c0,0 -3.17623,2.79569 -4.01058,8.33744c-1.27702,8.48197 -2.34462,37.96924 -2.34462,37.96924l-14.27896,7.75877c0,0 1.02374,-33.47722 4.82866,-43.27116c2.81053,-7.23438 15.8055,-10.79429 15.8055,-10.79429z" fill="#fcff00"/><path d="M60.06892,172.64139c0,0 -3.17623,2.79569 -4.01058,8.33744c-1.27702,8.48197 -1.6918,24.91348 -1.6918,24.91348c0,0 -3.67556,6.00834 -6.21073,7.58198c-2.09585,1.30094 -7.93468,1.19843 -7.93468,1.19843c0,0 0.07474,-6.75135 0.81255,-14.40777c0.57709,-5.98858 1.55983,-12.53087 3.22976,-16.82928c2.81053,-7.23438 15.8055,-10.79429 15.8055,-10.79429z" fill="url(#color-1)"/><path d="M60.2236,172.60894c0,0 -2.05948,3.42291 -2.89311,5.03413c-0.81939,1.58371 -1.35958,4.40375 -1.35958,4.40375l-10.67972,1.36469c0,0 0.68748,-1.89386 1.88892,-3.6204c0.81808,-1.17563 1.99881,-2.1822 2.8773,-2.81773c2.69398,-1.94891 10.1662,-4.36445 10.1662,-4.36445z" fill="url(#color-2)"/><path d="M41.9498,225.10457l-2.55714,1.66675c0,0 1.35065,-30.69706 3.73622,-40.64057c1.55096,-6.46467 4.55739,-7.20308 4.55739,-7.20308c0,0 -1.67508,1.56166 -2.94373,7.28671c-1.84749,8.3372 -2.79275,38.89019 -2.79275,38.89019z" fill-opacity="0.4" fill="#000000"/><path d="M39.38572,226.88112l-6.0137,3.27991c0,0 4.39332,-39.83845 7.48761,-45.9101c4.60475,-9.03553 19.34359,-11.71594 19.34359,-11.71594c0,0 -14.1831,3.77329 -16.68815,12.61983c-2.68814,9.49313 -4.12936,41.7263 -4.12936,41.7263z" fill="#d6d6d6"/><path d="M62.66714,189.55516c0,0 2.79569,3.17623 8.33744,4.01058c8.48197,1.27702 37.96924,2.34462 37.96924,2.34462l7.75877,14.27896c0,0 -33.47722,-1.02374 -43.27116,-4.82866c-7.23438,-2.81053 -10.79429,-15.8055 -10.79429,-15.8055z" fill="#fff127"/><path d="M62.45134,189.68117c0,0 2.79569,3.17623 8.33744,4.01058c8.48197,1.27702 24.91348,1.6918 24.91348,1.6918c0,0 6.00834,3.67556 7.58198,6.21072c1.30094,2.09585 1.19843,7.93468 1.19843,7.93468c0,0 -6.75135,-0.07474 -14.40777,-0.81255c-5.98858,-0.57709 -12.53087,-1.55983 -16.82928,-3.22975c-7.23438,-2.81053 -10.79429,-15.8055 -10.79429,-15.8055z" fill="#8d04ff"/><path d="M114.91452,207.80029l1.66675,2.55714c0,0 -30.69706,-1.35065 -40.64057,-3.73622c-6.46467,-1.55096 -7.20308,-4.5574 -7.20308,-4.5574c0,0 1.56166,1.67508 7.2867,2.94372c8.3372,1.84749 38.8902,2.79275 38.8902,2.79275z" fill-opacity="0.4" fill="#000000"/><path d="M116.69107,210.36437l3.27991,6.0137c0,0 -39.83845,-4.39332 -45.9101,-7.48761c-9.03553,-4.60475 -11.71594,-19.34359 -11.71594,-19.34359c0,0 3.7733,14.18311 12.61983,16.68815c9.49313,2.68814 41.72631,4.12935 41.72631,4.12935z" fill="#320b50"/><path d="M77.01765,170.46646c0,0 -2.79569,-3.17623 -8.33744,-4.01058c-8.48197,-1.27702 -37.96924,-2.34462 -37.96924,-2.34462l-7.75877,-14.27896c0,0 33.47722,1.02374 43.27116,4.82866c7.23438,2.81053 10.79428,15.80549 10.79428,15.80549z" data-paper-data="{&quot;index&quot;:null}" fill="#ffef09"/><path d="M77.23345,170.34046c0,0 -2.79569,-3.17623 -8.33744,-4.01058c-8.48197,-1.27702 -24.91348,-1.6918 -24.91348,-1.6918c0,0 -6.00834,-3.67556 -7.58198,-6.21072c-1.30095,-2.09586 -1.19843,-7.93469 -1.19843,-7.93469c0,0 6.75135,0.07474 14.40777,0.81255c5.98858,0.57709 12.53087,1.55983 16.82928,3.22975c7.23438,2.81053 10.79428,15.80549 10.79428,15.80549z" data-paper-data="{&quot;index&quot;:null}" fill="url(#color-3)"/><path d="M24.77027,152.22134l-1.66675,-2.55714c0,0 30.69707,1.35065 40.64057,3.73622c6.46467,1.55096 7.20308,4.5574 7.20308,4.5574c0,0 -1.56166,-1.67508 -7.2867,-2.94372c-8.33719,-1.84749 -38.8902,-2.79275 -38.8902,-2.79275z" data-paper-data="{&quot;index&quot;:null}" fill-opacity="0.4" fill="#000000"/><path d="M22.99372,149.65726l-3.27991,-6.0137c0,0 39.83846,4.39333 45.9101,7.48761c9.03553,4.60475 11.71594,19.3436 11.71594,19.3436c0,0 -3.77329,-14.1831 -12.61983,-16.68815c-9.49313,-2.68814 -41.72631,-4.12935 -41.72631,-4.12935z" data-paper-data="{&quot;index&quot;:null}" fill="#320b50"/><path d="M79.59299,187.14281c0,0 3.17623,-2.79569 4.01058,-8.33744c1.27702,-8.48197 2.34462,-37.96924 2.34462,-37.96924l14.27896,-7.75877c0,0 -1.02374,33.47722 -4.82866,43.27116c-2.81053,7.23438 -15.8055,10.79429 -15.8055,10.79429z" data-paper-data="{&quot;index&quot;:null}" fill="#f0ff00"/><path d="M79.71899,187.35861c0,0 3.17623,-2.79569 4.01058,-8.33744c1.27702,-8.48197 1.6918,-24.91348 1.6918,-24.91348c0,0 3.67556,-6.00834 6.21073,-7.58198c2.09585,-1.30094 7.93468,-1.19843 7.93468,-1.19843c0,0 -0.07474,6.75135 -0.81255,14.40777c-0.57709,5.98858 -1.55983,12.53087 -3.22975,16.82928c-2.81053,7.23438 -15.8055,10.79429 -15.8055,10.79429z" data-paper-data="{&quot;index&quot;:null}" fill="url(#color-4)"/><path d="M79.56431,187.39105c0,0 2.05948,-3.42291 2.89311,-5.03413c0.8194,-1.5837 1.35958,-4.40375 1.35958,-4.40375l10.67972,-1.36469c0,0 -0.68748,1.89386 -1.88892,3.6204c-0.81808,1.17563 -1.99881,2.1822 -2.8773,2.81773c-2.69398,1.94891 -10.1662,4.36445 -10.1662,4.36445z" data-paper-data="{&quot;index&quot;:null}" fill="url(#color-5)"/><path d="M97.83812,134.89544l2.55714,-1.66675c0,0 -1.35065,30.69707 -3.73622,40.64057c-1.55096,6.46467 -4.55739,7.20308 -4.55739,7.20308c0,0 1.67508,-1.56166 2.94373,-7.28671c1.84749,-8.3372 2.79275,-38.89019 2.79275,-38.89019z" data-paper-data="{&quot;index&quot;:null}" fill-opacity="0.4" fill="#000000"/><path d="M100.4022,133.11888l6.0137,-3.27991c0,0 -4.39332,39.83845 -7.48761,45.9101c-4.60475,9.03553 -19.34359,11.71594 -19.34359,11.71594c0,0 14.1831,-3.77329 16.68815,-12.61983c2.68814,-9.49313 4.12935,-41.72631 4.12935,-41.72631z" data-paper-data="{&quot;index&quot;:null}" fill="#d0d0d0"/></g><path d="M374.96741,187.36073c0.01738,-0.11711 0.03323,-0.23443 0.04758,-0.35195c0.0639,-0.52477 0.09469,-1.03507 0.09236,-1.53091c-0.00147,-0.55309 -0.04827,-1.10512 -0.13994,-1.65056c-0.04451,-0.26503 -0.1074,-0.52665 -0.18822,-0.78295c-0.21658,-0.71131 -0.60908,-1.3565 -1.14118,-1.87586c-0.24297,-0.23274 -0.52202,-0.42461 -0.82633,-0.56815c-0.33538,-0.16093 -0.71555,-0.27824 -1.14049,-0.35194c-0.39049,-0.06525 -0.78587,-0.09686 -1.18177,-0.09446c-1.35272,0 -2.61216,0.3032 -3.77831,0.90959c-1.16614,0.60639 -2.12238,1.4227 -2.86871,2.4489c-0.3279,0.45155 -0.6026,0.93942 -0.81863,1.45395c-0.29014,0.69898 -0.48545,1.43364 -0.58074,2.18442l-3.49843,19.80112h-7.55661l5.59749,-32.18556h7.48664l-0.69969,4.68789c0.24994,-0.37038 0.51656,-0.72921 0.79904,-1.07541c0.9434,-1.17253 2.09588,-2.16012 3.39908,-2.91279c1.6326,-0.93292 3.52175,-1.39937 5.66746,-1.39937c1.21979,-0.02285 2.31176,0.09889 3.27593,0.36523c0.93422,0.24563 1.80785,0.68102 2.56645,1.27903c0.59906,0.47941 1.12947,1.03878 1.57639,1.66245c0.61776,0.8757 1.07871,1.85204 1.36229,2.8855c0.05254,0.18522 0.10083,0.37162 0.14483,0.55905c0.40815,1.73522 0.46483,3.61294 0.17003,5.63317l-3.49843,20.50081h-7.62658zM254.27155,194.35759c-0.05933,0.50699 -0.08947,1.01697 -0.09026,1.52741c-0.00119,0.64871 0.05241,1.29635 0.16023,1.93603c0.18658,1.09617 0.61805,1.98245 1.29442,2.65881c0.22934,0.22797 0.49396,0.41745 0.78365,0.56115c0.32792,0.16466 0.70038,0.2843 1.1174,0.35894c0.37732,0.06524 0.75968,0.09686 1.14259,0.09446c0.35807,0.00037 0.71589,-0.01855 1.07192,-0.05668c0.97933,-0.09801 1.93228,-0.37526 2.81134,-0.81793c1.14282,-0.58307 2.0874,-1.39937 2.83373,-2.4489c0.17463,-0.24528 0.3358,-0.49988 0.48278,-0.76266c0.48826,-0.8838 0.82192,-1.84453 0.98656,-2.84072l3.49843,-19.80112h7.55661l-5.59749,32.18556h-7.55661l0.76966,-4.75787c-0.01741,0.02618 -0.0349,0.0523 -0.05248,0.07837c-1.05487,1.58981 -2.46137,2.91562 -4.11066,3.87486c-1.65593,0.95624 -3.58006,1.43436 -5.77241,1.43436c-0.28215,0.0002 -0.56424,-0.00773 -0.84592,-0.02379c-0.82517,-0.04758 -1.58782,-0.16676 -2.28798,-0.35754c-0.9683,-0.25139 -1.87704,-0.69256 -2.6735,-1.29792c-0.62355,-0.4803 -1.17288,-1.04989 -1.63027,-1.69044c-0.60067,-0.85546 -1.04376,-1.81131 -1.30841,-2.82253c-0.35077,-1.29208 -0.5054,-2.66627 -0.46389,-4.12255c0.02124,-0.69287 0.08268,-1.38392 0.18402,-2.06967l3.5684,-20.43084h7.55661zM324.1702,194.35759c-0.05933,0.50699 -0.08947,1.01697 -0.09026,1.52741c-0.00119,0.64871 0.05241,1.29635 0.16023,1.93603c0.18658,1.09617 0.61806,1.98245 1.29442,2.65881c0.22935,0.22797 0.49397,0.41745 0.78365,0.56115c0.32792,0.16466 0.70039,0.2843 1.1174,0.35894c0.37731,0.06524 0.75968,0.09686 1.14258,0.09446c0.35807,0.00037 0.71589,-0.01855 1.07192,-0.05668c0.97933,-0.09801 1.93229,-0.37526 2.81134,-0.81793c1.14282,-0.58307 2.0874,-1.39937 2.83373,-2.4489c0.17463,-0.24528 0.3358,-0.49988 0.48278,-0.76266c0.48826,-0.8838 0.82192,-1.84453 0.98656,-2.84072l3.49843,-19.80112h7.55661l-5.59749,32.18556h-7.55661l0.76966,-4.75787c-0.01741,0.02618 -0.0349,0.0523 -0.05248,0.07837c-1.05487,1.58981 -2.46137,2.91562 -4.11065,3.87486c-1.65593,0.95624 -3.58006,1.43436 -5.77242,1.43436c-0.28215,0.0002 -0.56424,-0.00773 -0.84592,-0.02379c-0.82517,-0.04758 -1.58781,-0.16676 -2.28797,-0.35754c-0.9683,-0.25139 -1.87705,-0.69256 -2.6735,-1.29792c-0.62355,-0.4803 -1.17288,-1.04989 -1.63027,-1.69044c-0.60067,-0.85546 -1.04377,-1.81131 -1.30842,-2.82253c-0.35077,-1.29208 -0.5054,-2.66627 -0.46389,-4.12255c0.02124,-0.69287 0.08268,-1.38392 0.18402,-2.06967l3.5684,-20.43084h7.55661zM425.48475,206.812l18.19184,-19.1714l1.3294,-0.06997c-1.1195,0.97956 -2.30896,1.69091 -3.5684,2.13404c-0.47159,0.16533 -0.95476,0.2956 -1.44555,0.38972c-0.86154,0.16606 -1.77907,0.23439 -2.75257,0.205c-0.41647,0.00042 -0.83274,-0.01802 -1.24754,-0.05527c-2.07617,-0.15867 -4.06147,-0.91734 -5.71434,-2.18372c-1.9358,-1.49266 -3.37016,-3.44012 -4.30307,-5.84238c-0.69367,-1.79424 -1.04514,-3.70253 -1.03623,-5.62618c0.0007,-0.70367 0.043,-1.40668 0.12664,-2.10536c0.46645,-3.40514 1.6326,-6.41379 3.49843,-9.02595c1.86583,-2.61216 4.24477,-4.66458 7.1368,-6.15724c2.89204,-1.49266 5.99398,-2.23899 9.30583,-2.23899c1.10368,-0.00421 2.20571,0.08567 3.29412,0.26868c1.89752,0.30782 3.71502,0.98944 5.347,2.0053c2.40226,1.51599 4.18646,3.59172 5.3526,6.2272c0.26846,0.6072 0.49498,1.23209 0.678,1.87026c0.43194,1.50339 0.63391,3.10474 0.60592,4.80405c-0.01376,0.75134 -0.06865,1.50136 -0.16442,2.24669c-0.32652,2.23899 -1.01454,4.32639 -2.06408,6.26219c-1.04953,1.9358 -2.25066,3.69667 -3.60338,5.28263l-18.33178,20.78068zM452.14279,174.4865c0.27988,-1.81919 0.1516,-3.48677 -0.38483,-5.00275c-0.53643,-1.51599 -1.43435,-2.7521 -2.69379,-3.70834c-0.74027,-0.55858 -1.58699,-0.9598 -2.48808,-1.17897c-0.72002,-0.17505 -1.45884,-0.26082 -2.19982,-0.25538c-1.86583,0 -3.61504,0.4548 -5.24764,1.36439c-1.6326,0.90959 -2.98533,2.13404 -4.05818,3.67335c-1.07285,1.53931 -1.74922,3.24188 -2.02909,5.10771c-0.00601,0.03799 -0.01184,0.07601 -0.01749,0.11405c-0.08443,0.56814 -0.12664,1.12416 -0.12664,1.66805c-0.00462,1.08413 0.17423,2.16121 0.52896,3.18567c0.53643,1.53931 1.43435,2.79875 2.69379,3.77831c0.73679,0.57049 1.58405,0.98173 2.48808,1.20766c0.71937,0.17926 1.45846,0.26718 2.19981,0.26168c1.91247,0 3.67335,-0.46645 5.28263,-1.39937c1.60928,-0.93292 2.95034,-2.18069 4.02319,-3.74332c1.07285,-1.56263 1.74922,-3.25354 2.02909,-5.07273zM396.65768,161.54231l19.80111,-4.47799l-8.53617,49.88762h-8.04639l6.99686,-40.58179l-11.61479,3.07862zM298.0719,152.37642l-9.44577,54.57552h-7.27673l9.23586,-54.57552zM177.93579,157.97391l-8.4662,48.97803h-8.11636l8.32626,-48.97803zM146.0301,157.97391l-8.4662,48.97803h-8.11636l8.32627,-48.97803zM137.77381,176.86543l-1.25943,7.55661h34.07471l1.25943,-7.55661zM314.7944,174.76638l-16.16275,13.64388l11.68476,18.54168h-8.74608l-11.75473,-19.1714l15.53303,-13.01416zM179.68501,190.85916c0.0361,-0.24995 0.07622,-0.4993 0.12034,-0.74796c0.47704,-2.81146 1.54493,-5.48978 3.1332,-7.85817c1.70257,-2.51887 3.83661,-4.52464 6.40213,-6.0173c2.41959,-1.4289 5.17971,-2.17894 7.98972,-2.17113c0.08886,0 0.17773,0.0007 0.26658,0.0021c2.19235,0 4.02319,0.46645 5.49253,1.39937c1.46934,0.93292 2.64715,2.18069 3.53342,3.74332c0.36604,0.64723 0.67641,1.32441 0.92779,2.0242c0.38324,1.07733 0.64697,2.19349 0.78645,3.32841c0.25655,2.00576 0.24489,4.10482 -0.03499,6.29717c-0.27988,2.28564 -0.87461,4.443 -1.7842,6.47209c-0.90959,2.02909 -2.05242,3.81329 -3.42847,5.3526c-1.37605,1.53931 -2.962,2.74044 -4.75786,3.60339c-1.79586,0.86294 -3.76664,1.29442 -5.91235,1.29442c-0.89103,0.00364 -1.78069,-0.07058 -2.65881,-0.2218c-1.76062,-0.28921 -3.42732,-0.99258 -4.86282,-2.05218c-2.02909,-1.51599 -3.51009,-3.54507 -4.443,-6.08727c-0.67963,-1.85183 -1.00032,-3.83358 -0.96207,-5.94523c0.01593,-0.80846 0.08019,-1.61523 0.19242,-2.41602zM187.38156,190.85916c-0.07424,0.55785 -0.11187,1.11997 -0.11265,1.68275c-0.00446,1.12556 0.16331,2.24518 0.49748,3.32001c0.48978,1.56263 1.3294,2.81041 2.51887,3.74332c0.72573,0.56393 1.56538,0.96334 2.46079,1.17057c0.67262,0.15706 1.36148,0.23386 2.05218,0.2288c1.25943,0 2.47223,-0.25655 3.63837,-0.76966c0.2558,-0.11251 0.50716,-0.23481 0.75356,-0.36664c0.90768,-0.4903 1.748,-1.09614 2.49998,-1.80239c1.00288,-0.93292 1.85417,-2.01743 2.55385,-3.25354c0.69968,-1.23611 1.16614,-2.55385 1.39937,-3.95323c0.00528,-0.03753 0.01041,-0.07508 0.01539,-0.11265c0.16979,-1.31121 0.14134,-2.55642 -0.08536,-3.73562c-0.0429,-0.22419 -0.09354,-0.44681 -0.15183,-0.6675c-0.23464,-0.90858 -0.62092,-1.77103 -1.14259,-2.55105c-0.62972,-0.93292 -1.39937,-1.67925 -2.30897,-2.239c-0.49629,-0.30302 -1.03487,-0.53057 -1.59808,-0.6752c-0.54157,-0.13852 -1.09672,-0.21712 -1.65545,-0.2344c-0.299,-0.00793 -0.59613,-0.00257 -0.8914,0.0161c-1.4797,0.09971 -2.91926,0.52422 -4.21631,1.24335c-1.6326,0.88627 -2.99699,2.12238 -4.09316,3.70833c-1.09617,1.58596 -1.80752,3.33517 -2.13404,5.24765zM226.70392,206.95194h-7.48665l5.59749,-32.18556h7.41668zM215.92875,174.76638l-5.59749,32.18556h-7.20677l5.45756,-32.18556zM240.3478,182.7428c-0.06966,-0.05809 -0.1401,-0.11523 -0.21131,-0.17142c-0.47776,-0.37929 -0.99308,-0.70869 -1.53791,-0.98306c-0.31222,-0.15498 -0.64275,-0.26994 -0.98376,-0.34215c-0.36672,-0.07701 -0.74059,-0.11476 -1.1153,-0.11264c-0.2127,-0.00746 -0.42004,-0.00467 -0.62202,0.00839c-0.98862,0.04943 -1.9354,0.4143 -2.70149,1.04113c-0.3203,0.2629 -0.61801,0.55219 -0.89,0.86481c-0.51998,0.60337 -0.9507,1.27821 -1.27903,2.0039c-0.53643,1.16615 -0.94457,2.40225 -1.22445,3.70833l-2.16903,-1.46934c0.41981,-2.19235 1.18946,-4.30307 2.30896,-6.33216c0.24883,-0.45189 0.51587,-0.89352 0.80044,-1.32381c0.91041,-1.39249 2.03325,-2.63384 3.32771,-3.67895c0.29769,-0.23899 0.60836,-0.46137 0.93058,-0.6661c1.28397,-0.83883 2.78337,-1.28793 4.31706,-1.29302c0.22325,-0.0002 0.44641,0.00889 0.6689,0.02729c0.82439,0.0626 1.62981,0.27879 2.37473,0.63742c0.31601,0.15428 0.62234,0.32766 0.91729,0.51917c0.59095,0.38621 1.13951,0.83369 1.63657,1.335z" fill="#000000" stroke="#000000" stroke-linecap="round"/></g><path d="M164.20343,189.34875l3.02494,-18.14965l6.31292,1.05215l-3.02494,18.14965z" fill="#000000" stroke="none" stroke-linecap="butt"/><path d="M134.45343,188.34875l3.02494,-18.14965l6.31292,1.05215l-3.02494,18.14965z" fill="#000000" stroke="none" stroke-linecap="butt"/></g></g></g></svg>